{"title":"Oceans.S01.E01.Sea.of.Cortez.HDTV.P2P4FREE","uid":8533453,"size":352949022,"categoryP":"video","categoryS":"tv_shows","magnet":"?xt=urn:btih:a1019150bddd95fd3c31c7910e57aac11ecbba7c&amp;dn=Oceans.S01.E01.Sea.of.Cortez.HDTV.P2P4FREE&amp;tr=udp%3A%2F%2Ftracker.openbittorrent.com%3A80&amp;tr=udp%3A%2F%2Fopen.demonii.com%3A1337&amp;tr=udp%3A%2F%2Ftracker.coppersurfer.tk%3A6969&amp;tr=udp%3A%2F%2Fexodus.desync.com%3A6969","seeders":1,"leechers":0,"uploader":"P2P4FREE","files":1,"time":1370211536,"description":"General\nComplete name                            : Oceans.S01.E01.Sea.of.Cortez.HDTV.P2P4FREE.mp4\nFormat                                   : MPEG-4\nFormat profile                           : Base Media\nCodec ID                                 : isom\nFile size                                : 337 MiB\nDuration                                 : 58mn 56s\nOverall bit rate mode                    : Variable\nOverall bit rate                         : 799 Kbps\nMovie name                               : 1. Sea of Cortez\nAlbum                                    : Oceans\nTrack name/Position                      : 1\nGrouping                                 : Factual,Science &amp; Nature\nGenre                                    : Factual\nWriting application                      : Lavf53.21.1\nCover                                    : Yes\ndesc                                     : The marine experts carry out pioneering science on the 20-metre-long sperm whale.\n\nVideo\nID                                       : 1\nFormat                                   : AVC\nFormat/Info                              : Advanced Video Codec\nFormat profile                           : &lt;a class=&quot;__cf_email__&quot; href=&quot;/cdn-cgi/l/email-protection&quot; data-cfemail=&quot;f0bd91999eb0bcc3dec0&quot;&gt;[email&amp;#160;protected]&lt;/a&gt;&lt;script cf-hash='f9e31' type=&quot;text/javascript&quot;&gt;\n/* &lt;![CDATA[ */!function(){try{var t=&quot;currentScript&quot;in document?document.currentScript:function(){for(var t=document.getElementsByTagName(&quot;script&quot;),e=t.length;e--;)if(t[e].getAttribute(&quot;cf-hash&quot;))return t[e]}();if(t&amp;&amp;t.previousSibling){var e,r,n,i,c=t.previousSibling,a=c.getAttribute(&quot;data-cfemail&quot;);if(a){for(e=&quot;&quot;,r=parseInt(a.substr(0,2),16),n=2;a.length-n;n+=2)i=parseInt(a.substr(n,2),16)^r,e+=String.fromCharCode(i);e=document.createTextNode(e),c.parentNode.replaceChild(e,c)}}}catch(u){}}();/* ]]&gt; */&lt;/script&gt;\nFormat settings, CABAC                   : Yes\nFormat settings, ReFrames                : 4 frames\nCodec ID                                 : avc1\nCodec ID/Info                            : Advanced Video Coding\nDuration                                 : 58mn 56s\nBit rate mode                            : Constant\nBit rate                                 : 700 Kbps\nWidth                                    : 640 pixels\nHeight                                   : 360 pixels\nDisplay aspect ratio                     : 16:9\nFrame rate mode                          : Constant\nFrame rate                               : 25.000 fps\nStandard                                 : PAL\nColor space                              : YUV\nChroma subsampling                       : 4:2:0\nBit depth                                : 8 bits\nScan type                                : Progressive\nBits/(Pixel*Frame)                       : 0.122\nStream size                              : 294 MiB (87%)\n\nAudio\nID                                       : 2\nFormat                                   : AAC\nFormat/Info                              : Advanced Audio Codec\nFormat profile                           : HE-AAC / LC\nCodec ID                                 : 40\nDuration                                 : 58mn 56s\nBit rate mode                            : Variable\nBit rate                                 : 96.0 Kbps\nChannel(s)                               : 2 channels\nChannel positions                        : Front: L R\nSampling rate                            : 48.0 KHz / 24.0 KHz\nCompression mode                         : Lossy\nStream size                              : 39.9 MiB (12%)\n\nIMDB : http://www.imdb.com/title/tt1324606/\n\nSCREENS\n---------------------------------- &lt;a href=&quot;\nhttp://share.pho.to/2S2Mh/original&quot; rel=&quot;nofollow&quot; target=&quot;_NEW&quot;&gt;\nhttp://share.pho.to/2S2Mh/original&lt;/a&gt; &lt;a href=&quot;\nhttp://share.pho.to/2S2Mm/original&quot; rel=&quot;nofollow&quot; target=&quot;_NEW&quot;&gt;\nhttp://share.pho.to/2S2Mm/original&lt;/a&gt; &lt;a href=&quot;\nhttp://share.pho.to/2S2N2/original&quot; rel=&quot;nofollow&quot; target=&quot;_NEW&quot;&gt;\nhttp://share.pho.to/2S2N2/original&lt;/a&gt; &lt;a href=&quot;\nhttp://share.pho.to/2S2N5/original&quot; rel=&quot;nofollow&quot; target=&quot;_NEW&quot;&gt;\nhttp://share.pho.to/2S2N5/original&lt;/a&gt; &lt;a href=&quot;\nhttp://share.pho.to/2S2NQ/original&quot; rel=&quot;nofollow&quot; target=&quot;_NEW&quot;&gt;\nhttp://share.pho.to/2S2NQ/original&lt;/a&gt; &lt;a href=&quot;\nhttp://share.pho.to/2S2Na/original&quot; rel=&quot;nofollow&quot; target=&quot;_NEW&quot;&gt;\nhttp://share.pho.to/2S2Na/original&lt;/a&gt; &lt;a href=&quot;\nhttp://share.pho.to/2S2Nh/original&quot; rel=&quot;nofollow&quot; target=&quot;_NEW&quot;&gt;\nhttp://share.pho.to/2S2Nh/original&lt;/a&gt; &lt;a href=&quot;\nhttp://share.pho.to/2S2Nw/original&quot; rel=&quot;nofollow&quot; target=&quot;_NEW&quot;&gt;\nhttp://share.pho.to/2S2Nw/original&lt;/a&gt; &lt;a href=&quot;\nhttp://share.pho.to/2S2Nx/original&quot; rel=&quot;nofollow&quot; target=&quot;_NEW&quot;&gt;\nhttp://share.pho.to/2S2Nx/original&lt;/a&gt;\n----------------------------------\n\nENJOY AND SEED! ;)","torrent":{"xt":"urn:btih:a1019150bddd95fd3c31c7910e57aac11ecbba7c","amp;dn":"Oceans.S01.E01.Sea.of.Cortez.HDTV.P2P4FREE","amp;tr":["udp%3A%2F%2Ftracker.openbittorrent.com%3A80","udp%3A%2F%2Fopen.demonii.com%3A1337","udp%3A%2F%2Ftracker.coppersurfer.tk%3A6969","udp%3A%2F%2Fexodus.desync.com%3A6969"],"infoHash":"a1019150bddd95fd3c31c7910e57aac11ecbba7c","infoHashBuffer":{"type":"Buffer","data":[161,1,145,80,189,221,149,253,60,49,199,145,14,87,170,193,30,203,186,124]},"announce":[],"urlList":[]}}